Coordinates
version=1
nRows=6
nColumns=63
inDegrees=yes

Units are S.I. units (second, meters, Newtons, ...)
If the header above contains a line with 'inDegrees', this indicates whether rotational values are in degrees (yes) or radians (no).

endheader
time	pelvis_tilt	pelvis_list	pelvis_rotation	pelvis_tx	pelvis_ty	pelvis_tz	hip_flexion_r	hip_adduction_r	hip_rotation_r	knee_angle_r	knee_angle_r_beta	ankle_angle_r	subtalar_angle_r	mtp_angle_r	hip_flexion_l	hip_adduction_l	hip_rotation_l	knee_angle_l	knee_angle_l_beta	ankle_angle_l	subtalar_angle_l	mtp_angle_l	L5_S1_Flex_Ext	L5_S1_Lat_Bending	L5_S1_axial_rotation	L4_L5_Flex_Ext	L4_L5_Lat_Bending	L4_L5_axial_rotation	L3_L4_Flex_Ext	L3_L4_Lat_Bending	L3_L4_axial_rotation	L2_L3_Flex_Ext	L2_L3_Lat_Bending	L2_L3_axial_rotation	L1_L2_Flex_Ext	L1_L2_Lat_Bending	L1_L2_axial_rotation	L1_T12_Flex_Ext	L1_T12_Lat_Bending	L1_T12_axial_rotation	Abs_r3	Abs_r2	Abs_r1	Abs_t1	Abs_t2	neck_flexion	neck_bending	neck_rotation	arm_flex_r	arm_add_r	arm_rot_r	elbow_flex_r	pro_sup_r	wrist_flex_r	wrist_dev_r	arm_flex_l	arm_add_l	arm_rot_l	elbow_flex_l	pro_sup_l	wrist_flex_l	wrist_dev_l
      2.62711864	      0.56368426	     -5.34092416	     78.67630594	      0.22543647	      0.75515293	      0.70375587	      2.02570523	     -2.25750092	      0.57470756	      9.82137011	      0.17141525	     36.33368307	     16.18979513	      0.00000000	     -0.04763947	      2.53147622	     -8.81060798	      6.25141478	      0.10910777	     36.54744594	    -10.25208604	      0.00000000	     -0.14080098	      0.05423986	      2.92804084	     -0.26148150	      0.07213901	      3.11104339	     -0.23132193	      0.13187880	      3.11104339	     -0.16092144	      0.13187880	      2.56203573	     -0.13074779	      0.11060592	      2.37903318	     -0.08045368	      0.08401754	      2.19603063	     -1.00572733	      0.61357215	     16.28488472	      0.00000000	      0.00000000	     25.24209739	      2.46568492	     15.48310681	     -2.20869153	    -10.20499636	     24.83477499	     30.10804980	     84.61029674	    -10.13217481	      1.31242797	      7.73793877	    -11.96133048	     57.66791653	     33.21440994	     80.22095126	    -21.15498805	     -4.14211001
      2.64406780	      0.53765831	     -5.37343725	     79.09974186	      0.22492425	      0.75510740	      0.70366239	      1.99627043	     -2.29604682	      0.09008080	      9.76477914	      0.17042755	     36.38960185	     16.29740006	      0.00000000	      0.02729006	      2.61350441	     -7.06200966	      6.21249379	      0.10842847	     36.10047480	    -12.04281753	      0.00000000	     -0.12799644	      0.05400986	      2.87008427	     -0.23770219	      0.07183312	      3.04946453	     -0.21028535	      0.13131958	      3.04946453	     -0.14628713	      0.13131958	      2.51132373	     -0.11885749	      0.11013692	      2.33194347	     -0.07313717	      0.08366128	      2.15256320	     -0.91426576	      0.61097039	     15.96254767	      0.00000000	      0.00000000	     25.61695613	      2.34408083	     14.75293826	     -2.29714871	    -10.20487209	     24.43792695	     30.23740437	     84.75693841	     -9.39312504	      1.52424923	      9.05940146	    -12.26335055	     63.67332409	     32.75282939	     76.86014626	    -23.85000755	     -5.38464034
      2.66101695	      0.46709273	     -5.37555100	     79.08611897	      0.22494995	      0.75514347	      0.70366269	      2.03534535	     -2.37979376	     -0.06165210	      9.77378702	      0.17058476	     36.44194115	     16.47099425	      0.00000000	      0.11106825	      2.63045534	     -7.69444876	      6.31788522	      0.11026790	     36.32847084	    -11.20432401	      0.00000000	     -0.11939820	      0.04803145	      2.86591504	     -0.22173440	      0.06388183	      3.04503474	     -0.19615931	      0.11678366	      3.04503474	     -0.13646021	      0.11678366	      2.50767566	     -0.11087317	      0.09794573	      2.32855597	     -0.06822413	      0.07440071	      2.14943628	     -0.85284943	      0.54334135	     15.93935971	      0.00000000	      0.00000000	     26.01859250	      2.21649158	     13.90134102	     -2.21324713	    -10.28609357	     24.74269047	     30.28986125	     84.17404083	     -8.63351233	      1.69723473	      9.69371620	    -12.36774853	     66.38804079	     32.33800754	     76.52129847	    -24.77879683	     -6.11287736
      2.67796610	      0.40617846	     -5.38079522	     79.18721989	      0.22496447	      0.75526210	      0.70368149	      2.06227826	     -2.43208853	     -0.21051373	      9.77248162	      0.17056198	     36.45370214	     16.44510454	      0.00000000	      0.13673050	      2.65028366	     -8.05143448	      6.29709381	      0.10990502	     36.43319501	    -10.53302293	      0.00000000	     -0.10703541	      0.04027134	      2.82586531	     -0.19877546	      0.05356089	      3.00248189	     -0.17584848	      0.09791574	      3.00248189	     -0.12233077	      0.09791574	      2.47263215	     -0.09939308	      0.08212132	      2.29601556	     -0.06116003	      0.06238031	      2.11939898	     -0.76454324	      0.45555749	     15.71661509	      0.00000000	      0.00000000	     26.27839704	      2.10270652	     12.89272934	     -1.92056700	    -10.39293395	     25.61362099	     30.15698912	     83.73811607	     -7.81680313	      1.96296470	     10.31456093	    -12.55760657	     69.04195308	     32.09113538	     75.53183663	    -24.91127423	     -6.27529900
      2.69491525	      0.40866905	     -5.32051613	     79.42058375	      0.22469269	      0.75530800	      0.70352940	      1.92984974	     -2.44233015	     -0.50230623	      9.66080189	      0.16861280	     36.47296258	     16.46076698	      0.00000000	      0.05502626	      2.74999376	     -6.20394349	      6.19832626	      0.10818120	     35.91076548	    -12.71110076	      0.00000000	     -0.10279413	      0.03934034	      2.83133851	     -0.19089897	      0.05232266	      3.00829716	     -0.16888047	      0.09565211	      3.00829716	     -0.11748341	      0.09565211	      2.47742119	     -0.09545462	      0.08022283	      2.30046254	     -0.05873656	      0.06093819	      2.12350388	     -0.73424816	      0.44502584	     15.74705538	      0.00000000	      0.00000000	     26.42970640	      1.75441971	     11.51261740	     -2.31700405	    -10.19505656	     23.40839926	     30.65651939	     85.29299744	     -6.57289878	      2.86280683	     11.84749601	    -12.69455535	     76.19584217	     31.97790509	     68.88528003	    -27.30418021	     -7.30482892
      2.71186441	      0.38477000	     -5.25451437	     79.04859660	      0.22516900	      0.75546146	      0.70362597	      1.94178563	     -2.46888488	     -0.21039039	      9.68343459	      0.16900782	     36.47146658	     16.53514258	      0.00000000	     -0.02335871	      2.71068741	     -7.99952708	      6.21743539	      0.10851472	     36.34161003	    -10.78578064	      0.00000000	     -0.10123697	      0.03369416	      2.88425948	     -0.18800717	      0.04481323	      3.06452570	     -0.16632221	      0.08192397	      3.06452570	     -0.11570373	      0.08192397	      2.52372705	     -0.09400865	      0.06870912	      2.34346083	     -0.05784680	      0.05219225	      2.16319461	     -0.72312552	      0.38115503	     16.04138598	      0.00000000	      0.00000000	     26.46155138	      1.59210306	     10.54842067	     -2.10188104	    -10.31532657	     24.09719046	     30.65962368	     85.00549677	     -6.47023634	      3.11873097	     12.04909322	    -12.69435052	     77.53451656	     31.73222517	     66.68881471	    -27.10761859	     -8.06135855
